# xmcd
#
# Track frame offsets: 
#        150
#        14619
#        29714
#        43511
#        48386
#        61028
#        82825
#        100129
#        116404
#        140331
#        154291
#        177614
#
# Disc length: 2480 seconds
#
# Revision: 0
# Processed by: cddbd v1.5.2PL0 Copyright (c) Steve Scherf et al.
# Submitted via: ExactAudioCopy v1.0b1
#
DISCID=9b09ae0c
DTITLE=If I Had A Hi-Fi - Nada Surf
DYEAR=2010
DGENRE=Ambient
TTITLE0=Electrocution
TTITLE1=Enjoy the silence
TTITLE2=Love goes on!
TTITLE3=Janine
TTITLE4=You were so warm
TTITLE5=Love and Anger
TTITLE6=Agony of Laffitte
TTITLE7=Bye Bye Beauté
TTITLE8=Question
TTITLE9=Bright Side
TTITLE10=Evolution
TTITLE11=I remembered what i was going to say
EXTD=
EXTT0=
EXTT1=
EXTT2=
EXTT3=
EXTT4=
EXTT5=
EXTT6=
EXTT7=
EXTT8=
EXTT9=
EXTT10=
EXTT11=
PLAYORDER=
